<svg aria-hidden="true" style="width:0;height:0;position:absolute;overflow:hidden" xmlns="http://www.w3.org/2000/svg"><defs><symbol id="icon-clients_heart" viewBox="0 0 32 32"><path fill="#fff" style="fill:var(--color1,#fff);stroke:var(--color2,#dcddeb)" stroke="#dcddeb" stroke-width=".348" d="M16 26.957c6.819 0 12.348-5.528 12.348-12.348S22.82 2.261 16 2.261c-6.819 0-12.348 5.528-12.348 12.348S9.18 26.957 16 26.957z"/><path fill="#0075ff" style="fill:var(--color3,#0075ff)" d="M15.763 17.396a2.02 2.02 0 1 1 2.858-2.859c.086.086.157.179.225.275.067-.096.139-.189.225-.275a2.018 2.018 0 0 1 2.858 0c.026.026.045.058.07.085a3.697 3.697 0 0 0-3.184-5.578c-.948 0-1.898.362-2.621 1.086a3.69 3.69 0 0 0-.412.504 3.69 3.69 0 0 0-.412-.504c-.724-.724-1.673-1.086-2.621-1.086s-1.897.362-2.621 1.086a3.706 3.706 0 0 0 0 5.242c.629.629 4.436 3.796 4.7 4.06s.608.395.953.395.69-.132.953-.395c.062-.062.322-.286.686-.596-.656-.556-1.458-1.237-1.66-1.439z"/><path fill="#123578" style="fill:var(--color4,#123578)" d="M21.93 14.537c-.395-.395-.912-.592-1.429-.592s-1.035.197-1.429.592a2.08 2.08 0 0 0-.225.275 2.004 2.004 0 0 0-.225-.275 2.018 2.018 0 0 0-2.858 0 2.02 2.02 0 0 0 0 2.859c.343.343 2.419 2.07 2.563 2.214s.332.215.52.215.376-.072.52-.215 2.221-1.872 2.563-2.214a2.02 2.02 0 0 0 0-2.859z"/></symbol><symbol id="icon-employees" viewBox="0 0 26 32"><path fill="#fff" style="fill:var(--color1,#fff);stroke:var(--color2,#dcddeb)" stroke="#dcddeb" stroke-width=".444" d="M13 28.278c6.781 0 12.278-5.497 12.278-12.278S19.781 3.722 13 3.722C6.219 3.722.722 9.219.722 16S6.219 28.278 13 28.278z"/><path fill="#123578" style="fill:var(--color3,#123578)" d="M15.492 16.895h-4.984a2.492 2.492 0 0 0 0 4.984h4.984a2.492 2.492 0 0 0 0-4.984z"/><path fill="#0075ff" style="fill:var(--color4,#0075ff)" d="M13 15.471a2.848 2.848 0 1 0 0-5.696 2.848 2.848 0 0 0 0 5.696z"/></symbol><symbol id="icon-job_done" viewBox="0 0 32 32"><path fill="#fff" style="fill:var(--color1,#fff);stroke:var(--color2,#dcddeb)" stroke="#dcddeb" stroke-width=".348" d="M16 26.957c6.819 0 12.348-5.528 12.348-12.348S22.82 2.261 16 2.261c-6.819 0-12.348 5.528-12.348 12.348S9.18 26.957 16 26.957z"/><path fill="#0075ff" style="fill:var(--color4,#0075ff)" d="M15.861 21.288a6.818 6.818 0 1 0 0-13.636 6.818 6.818 0 0 0 0 13.636z"/><path fill="#edf5ff" style="fill:var(--color5,#edf5ff)" d="M15.18 17.197a.68.68 0 0 1-.482-.2l-2.045-2.045c-.267-.267-.267-.697 0-.964s.697-.267.964 0l1.563 1.563 2.927-2.927c.267-.267.697-.267.964 0s.267.697 0 .964l-3.409 3.409a.68.68 0 0 1-.482.2z"/></symbol><symbol id="icon-logo" viewBox="0 0 136 32"><path fill="#e5e5e5" style="fill:var(--color6,#e5e5e5)" d="M0 0h135.619v32H0V0z"/><path fill="#fff" style="fill:var(--color1,#fff)" d="M-83.81-28.952h1097.143v7947.429H-83.81V-28.952z"/><path fill="#fff" style="fill:var(--color1,#fff)" d="M-83.81-28.952h1097.143v89.905H-83.81v-89.905z"/><path fill="#0075ff" style="fill:var(--color4,#0075ff)" d="M5.097 7.309.286 8.334l4.82 1.411a1.755 1.755 0 0 1 1.21 1.306l1.201 5.766 1.297-5.661a1.75 1.75 0 0 1 1.306-1.297l4.82-1.095-4.96-1.393A1.748 1.748 0 0 1 8.815 6.03L7.711.474 6.458 5.995a1.75 1.75 0 0 1-1.359 1.314zM11.921 22.939l-4.309.918 4.317 1.264a1.563 1.563 0 0 1 1.083 1.169l1.075 5.164 1.162-5.07a1.57 1.57 0 0 1 1.169-1.162l4.317-.981-4.442-1.248a1.567 1.567 0 0 1-1.044-1.2l-.989-4.976-1.122 4.944a1.569 1.569 0 0 1-1.217 1.178zM21.69 10.946l-7.371 1.571 7.384 2.162a2.69 2.69 0 0 1 1.853 2.001l1.839 8.834 1.987-8.673a2.683 2.683 0 0 1 2-1.987l7.384-1.678-7.599-2.135a2.682 2.682 0 0 1-1.785-2.054L25.69.475l-1.92 8.458a2.687 2.687 0 0 1-2.081 2.014z"/><path fill="#211f54" style="fill:var(--color7,#211f54)" d="M43.063 15.082c0-1.174.287-2.257.862-3.251a6.477 6.477 0 0 1 2.371-2.353 6.28 6.28 0 0 1 3.251-.88c1.197 0 2.305.311 3.323.934a6.314 6.314 0 0 1 2.353 2.443l-2.066 1.096a4.093 4.093 0 0 0-1.509-1.527 3.96 3.96 0 0 0-2.102-.593 4.136 4.136 0 0 0-3.593 2.066 4.023 4.023 0 0 0-.557 2.066c0 .742.186 1.431.557 2.066a4.136 4.136 0 0 0 3.593 2.066c.778 0 1.485-.198 2.12-.593a4.15 4.15 0 0 0 1.509-1.581l2.066 1.132a6.408 6.408 0 0 1-5.694 3.395 6.377 6.377 0 0 1-3.251-.862 6.62 6.62 0 0 1-2.371-2.371 6.38 6.38 0 0 1-.862-3.251zm16.114 3.719c0 .192.048.329.144.413s.245.126.449.126c.156 0 .341-.018.557-.054v2.048a7.751 7.751 0 0 1-1.239.108c-.695 0-1.227-.18-1.599-.539-.359-.371-.539-1.024-.539-1.958V8.76h2.227v10.041zm6.625-6.683c.862 0 1.635.216 2.317.647.695.419 1.233.988 1.617 1.707s.575 1.515.575 2.389c0 .287-.024.551-.072.79h-6.934c.18.635.497 1.132.952 1.491.455.347 1.036.521 1.742.521.431 0 .844-.096 1.239-.287.407-.192.713-.437.916-.736l1.706 1.006a4.199 4.199 0 0 1-1.635 1.437c-.659.323-1.419.485-2.281.485-.958 0-1.808-.204-2.551-.611s-1.317-.97-1.724-1.689c-.395-.718-.593-1.527-.593-2.425 0-.886.198-1.688.593-2.407a4.401 4.401 0 0 1 1.688-1.688c.719-.419 1.533-.629 2.443-.629zm2.425 3.791c-.096-.575-.365-1.024-.808-1.347-.431-.335-.976-.503-1.635-.503-.455 0-.874.084-1.257.252-.371.168-.671.395-.898.683s-.347.593-.359.916h4.958zm10.534-3.557h2.228v8.981h-2.228v-.88c-.419.359-.88.641-1.383.844a4.253 4.253 0 0 1-1.563.287c-.91 0-1.706-.204-2.389-.611s-1.21-.97-1.581-1.689c-.359-.718-.539-1.527-.539-2.425s.18-1.706.539-2.425a4.132 4.132 0 0 1 1.581-1.688c.683-.419 1.479-.629 2.389-.629a4.05 4.05 0 0 1 1.563.305c.503.192.964.467 1.383.826v-.898zm-2.658 7.095c.491 0 .934-.108 1.329-.323.407-.227.725-.539.952-.934.24-.395.36-.844.36-1.347 0-.754-.258-1.371-.773-1.85-.503-.479-1.125-.719-1.868-.719-.754 0-1.377.245-1.868.737-.479.479-.718 1.096-.718 1.85s.239 1.377.718 1.868c.491.479 1.114.719 1.868.719zm11.74-7.329c.526 0 1.06.114 1.598.341.551.216 1.018.611 1.401 1.186.395.575.593 1.347.593 2.317v5.371h-2.228v-5.371c0-.671-.191-1.15-.574-1.437-.371-.299-.808-.449-1.311-.449s-.934.18-1.294.539c-.347.347-.52.91-.52 1.689v5.03H83.28v-8.981h2.228v.754c.323-.299.683-.539 1.077-.719s.814-.269 1.258-.269zm6.515-1.257c-.419 0-.748-.114-.987-.341s-.36-.539-.36-.934c0-.407.12-.725.36-.952s.568-.341.987-.341c.42 0 .749.114.988.341s.36.545.36.952c0 .383-.126.695-.377.934-.24.227-.563.341-.971.341zm-1.131 10.472v-8.981h2.228v8.981h-2.228zm9.018-9.215c.527 0 1.06.114 1.598.341.551.216 1.018.611 1.401 1.186.395.575.593 1.347.593 2.317v5.371h-2.227v-5.371c0-.671-.192-1.15-.575-1.437-.371-.299-.808-.449-1.311-.449s-.934.18-1.293.539c-.347.347-.521.91-.521 1.689v5.03h-2.227v-8.981h2.227v.754c.323-.299.683-.539 1.078-.719s.814-.269 1.257-.269zm12.425.234h2.228v8.532c0 .85-.216 1.599-.647 2.245-.419.647-1.006 1.144-1.76 1.491-.755.359-1.599.539-2.533.539-1.042 0-1.988-.204-2.838-.611-.85-.395-1.448-.916-1.796-1.563l1.904-1.096c.18.347.515.635 1.006.862.491.24 1.084.359 1.778.359.766 0 1.401-.21 1.904-.629.503-.407.754-.94.754-1.599v-.413a4.423 4.423 0 0 1-2.928 1.113c-.91 0-1.707-.204-2.389-.611s-1.21-.97-1.581-1.689c-.359-.718-.539-1.527-.539-2.425s.18-1.706.539-2.425a4.132 4.132 0 0 1 1.581-1.688c.683-.419 1.479-.629 2.389-.629.539 0 1.054.102 1.544.305.503.192.964.461 1.383.808v-.88zm-2.64 7.095c.491 0 .934-.108 1.329-.323a2.45 2.45 0 0 0 .952-.934 2.55 2.55 0 0 0 .359-1.347c0-.754-.257-1.371-.772-1.85-.503-.479-1.126-.719-1.868-.719-.754 0-1.378.245-1.868.737-.479.479-.718 1.096-.718 1.85s.239 1.377.718 1.868c.491.479 1.114.719 1.868.719zm18.311-4.419 4.077 6.305h-2.802l-2.91-4.509-2.91 4.509h-2.802l4.078-6.305-4.06-6.269h2.802l2.892 4.473 2.892-4.473h2.802l-4.059 6.269z"/></symbol><symbol id="icon-mark" viewBox="0 0 37 32"><path stroke-linejoin="round" stroke-linecap="round" stroke-width="5.333" d="m2.978 18.242 8.965 8.965L34.355 4.795"/></symbol><symbol id="icon-phone" viewBox="0 0 32 32"><path d="M25.854 31.453h-.033c-5.279-.173-11.463-5.29-15.724-9.553C5.831 17.637.714 11.45.549 6.196.489 4.352 5.013 1.074 5.06 1.041c1.174-.818 2.478-.527 3.013.214.362.502 3.792 5.698 4.165 6.288.387.612.329 1.523-.154 2.436-.266.508-1.15 2.06-1.564 2.785.447.636 1.63 2.198 4.071 4.639 2.445 2.442 4.003 3.627 4.642 4.074.724-.414 2.277-1.298 2.785-1.564.9-.477 1.805-.538 2.423-.159.631.387 5.814 3.833 6.291 4.165.401.283.659.765.711 1.328.049.568-.126 1.169-.491 1.693-.03.044-3.27 4.513-5.098 4.513z"/></symbol><symbol id="icon-play" viewBox="0 0 29 32"><path d="M6.082.857C3.472-.679.181 1.203.181 4.232V27.77c0 3.029 3.29 4.911 5.901 3.375l20.006-11.768c2.574-1.514 2.574-5.236 0-6.75L6.082.857z"/></symbol><symbol id="icon-checked" viewBox="0 0 32 32"><path fill="#edf5ff" style="fill:var(--color1,#edf5ff)" d="M16 32c8.837 0 16-7.163 16-16S24.837 0 16 0 0 7.163 0 16s7.163 16 16 16z"/><path fill="none" stroke="#0075ff" style="stroke:var(--color2,#0075ff)" stroke-linejoin="round" stroke-linecap="round" stroke-width="2.462" d="m8.759 17.035 4.138 4.138 10.344-10.344"/></symbol><symbol id="icon-frame" viewBox="0 0 32 32"><path fill="#edf5ff" style="fill:var(--color1,#edf5ff)" d="M0 7.111A7.111 7.111 0 0 1 7.111 0h17.778A7.111 7.111 0 0 1 32 7.111v17.778A7.111 7.111 0 0 1 24.889 32H7.111A7.111 7.111 0 0 1 0 24.889V7.111z"/></symbol></defs></svg>